:FULLY-SPECIFIED
:FORCE-ALL-JOINTS-BE-3DOF
:DEGREES
849
root 3.87679 16.3105 28.1696 -9.4133 6.99169 359.496
lfemur -22.7417 0.77412 -17.6781
ltibia 37.3014 0 0
lfoot -7.62286 -13.057 0
ltoes 2.41058 0 0
rfemur -35.4402 -3.13668 0.721377
rtibia 105.957 0 0
rfoot 37.02 21.3184 0
rtoes -3.0606 0 0
lowerback 4.22526 2.98933 -2.94978
upperback 1.07261 3.8628 0.287219
thorax -1.4765 1.93994 1.73577
lowerneck -6.31134 -3.78747 2.45622
upperneck 9.05901 -5.47378 1.34869
head 4.06006 -2.55208 -0.281574
lclavicle 1.3073e-14 1.48063e-14 0
lhumerus -50.4932 -10.5242 84.1327
lradius 55.8138 0 0
lwrist 21.0852 0 0
lhand -2.96752 3.47551 0
lfingers 7.12502 0 0
lthumb 22.7451 32.1541 0
rclavicle 1.3073e-14 1.48063e-14 0
rhumerus -38.7457 14.3895 -66.3609
rradius 50.7631 0 0
rwrist 9.48666 0 0
rhand -36.6175 -33.0626 0
rfingers 7.12502 0 0
rthumb -9.70568 -782.828 0
850
root 3.88791 16.318 28.2666 -10.1528 8.09097 359.703
lfemur -21.7431 1.0879 -18.2221
ltibia 37.3505 0 0
lfoot -7.77361 -14.2331 0
ltoes 3.88786 0 0
rfemur -39.0254 -2.69195 0.716298
rtibia 107.43 0 0
rfoot 36.4044 19.8942 0
rtoes -1.86962 0 0
lowerback 5.12764 2.60384 -3.34635
upperback 1.39421 3.2969 0.141757
thorax -1.62902 1.65671 1.81799
lowerneck -6.23536 -3.77353 2.43686
upperneck 9.00593 -5.4609 1.4736
head 4.03085 -2.54215 -0.233769
lclavicle 8.69032e-15 1.44087e-14 0
lhumerus -49.4685 -11.4022 83.7363
lradius 55.6943 0 0
lwrist 21.3805 0 0
lhand -2.53712 3.51385 0
lfingers 7.12502 0 0
lthumb 23.1583 32.1433 0
rclavicle 8.69032e-15 1.44087e-14 0
rhumerus -39.6852 13.3798 -65.3914
rradius 50.7043 0 0
rwrist 9.20701 0 0
rhand -36.4721 -33.1842 0
rfingers 7.12502 0 0
rthumb -9.56537 -782.974 0
851
root 3.89411 16.3258 28.3597 -10.9112 9.21534 359.869
lfemur -20.6993 1.45814 -18.6922
ltibia 37.3359 0 0
lfoot -7.8458 -15.5009 0
ltoes 5.56421 0 0
rfemur -42.6413 -2.24991 0.817874
rtibia 108.309 0 0
rfoot 35.3197 18.0174 0
rtoes -0.974414 0 0
lowerback 6.07445 2.20375 -3.71485
upperback 1.73475 2.70384 -0.015552
thorax -1.77621 1.35959 1.88231
lowerneck -6.14251 -3.74697 2.43002
upperneck 8.93403 -5.43314 1.61915
head 3.99206 -2.52397 -0.179872
lclavicle 3.89044e-15 1.32832e-14 0
lhumerus -48.3598 -12.2963 83.3004
lradius 55.4905 0 0
lwrist 21.6354 0 0
lhand -2.0634 3.58763 0
lfingers 7.12502 0 0
lthumb 23.6131 32.1626 0
rclavicle 3.89044e-15 1.32832e-14 0
rhumerus -40.7012 12.428 -64.5264
rradius 50.7584 0 0
rwrist 8.796 0 0
rhand -36.1533 -33.1249 0
rfingers 7.12502 0 0
rthumb -9.25775 -782.949 0
852
root 3.89746 16.3349 28.4494 -11.6572 10.3339 359.995
lfemur -19.648 1.86555 -19.0901
ltibia 37.2651 0 0
lfoot -7.84621 -16.8092 0
ltoes 7.35932 0 0
rfemur -46.1409 -1.82989 1.00193
rtibia 108.486 0 0
rfoot 33.8596 15.8754 0
rtoes -0.327327 0 0
lowerback 7.0276 1.7993 -4.04633
upperback 2.07946 2.10226 -0.176053
thorax -1.9159 1.05808 1.93065
lowerneck -6.04678 -3.71209 2.43104
upperneck 8.85051 -5.3957 1.77701
head 3.94883 -2.50042 -0.122544
lclavicle -7.62607e-16 1.15933e-14 0
lhumerus -47.2015 -13.1965 82.853
lradius 55.247 0 0
lwrist 21.8558 0 0
lhand -1.54002 3.6829 0
lfingers 7.12502 0 0
lthumb 24.1154 32.1952 0
rclavicle -7.62607e-16 1.15933e-14 0
rhumerus -41.7523 11.503 -63.7172
rradius 50.8857 0 0
rwrist 8.28529 0 0
rhand -35.6151 -32.9375 0
rfingers 7.12502 0 0
rthumb -8.73835 -782.797 0
